<?xml version="1.0" encoding="UTF-8"?>
<svg viewBox="0 0 24 24" xmlns="http://www.w3.org/2000/svg">
<rect x="7.7144" y="8.0203" width="2.8572" height="3.0101" rx=".5"/>
<path d="M2 2.625C2 2.27982 2.27982 2 2.625 2H4.85715V5.01014H2V2.625Z"/>
<path d="m2 5.0101h2.8572l6e-5 3.0102h-2.8571l-7e-5 -3.0102z"/>
<path d="m2.0001 8.0203h2.8571v2.3851c0 0.3452-0.27982 0.625-0.625 0.625h-1.6071c-0.34518 0-0.625-0.2798-0.625-0.625v-2.3851z"/>
<path d="M4.85715 2H7.71441V5.01014H4.85715V2Z"/>
<path d="m7.7144 2h2.2321c0.34517 0 0.62497 0.27982 0.62497 0.625v1.7601c0 0.34518-0.2798 0.62501-0.62497 0.62501h-2.2321v-3.0101z"/>
<path d="m7.7144 14.023c0-0.3451 0.27983-0.625 0.62501-0.625h1.6071c0.34521 0 0.62501 0.2799 0.62501 0.625v2.3852h-2.8572v-2.3852z"/>
<path d="m7.7144 16.409h2.8572v3.0102h-2.8572v-3.0102z"/>
<path d="m7.7144 19.419h2.8572v2.385c0 0.3452-0.2798 0.625-0.62501 0.625h-2.2322v-3.01z"/>
<path d="m4.8573 19.419 2.8571 1e-4v3.01h-2.8571v-3.0101z"/>
<path d="m2.0001 19.419 2.8572-1e-4v3.0101l-2.2322 1e-4c-0.34518 0-0.625-0.2798-0.625-0.625v-2.3851z"/>
<path d="m2.0001 17.034c0-0.3451 0.27982-0.625 0.625-0.625h1.6072c0.34518 0 0.625 0.2799 0.625 0.625l5e-5 2.3851-2.8572 1e-4v-2.3852z"/>
<path d="m13.429 2.625c0-0.34518 0.2798-0.625 0.625-0.625h1.6071c0.3452 0 0.625 0.27982 0.625 0.625v2.3851h-2.8571v-2.3851z"/>
<path d="m13.429 5.0101h2.8571l1e-4 3.0102h-2.8572v-3.0102z"/>
<path d="m13.429 8.0203h2.8572v3.0101h-2.2322c-0.3452 0-0.625-0.2798-0.625-0.625v-2.3851z"/>
<path d="m16.286 8.0203 2.8571-1.1e-4v3.0102h-2.8571v-3.0101z"/>
<path d="m16.286 5.0101 2.2322 1.2e-4c0.3452 0 0.625 0.27983 0.625 0.625v2.385l-2.8571 1.1e-4 -1e-4 -3.0102z"/>
<path d="m19.143 8.0202h2.2323c0.3452 0 0.625 0.27982 0.625 0.625v1.7602c0 0.3451-0.2798 0.625-0.625 0.625h-2.2323v-3.0102z"/>
<path d="m13.429 14.023c0-0.3451 0.2798-0.625 0.625-0.625h1.6071c0.3452 0 0.625 0.2799 0.625 0.625v2.3852h-2.8571v-2.3852z"/>
<path d="m13.429 16.409h2.8571l1e-4 3.0102h-2.8572v-3.0102z"/>
<path d="m13.429 19.419h2.8572v2.3851c0 0.3452-0.2799 0.625-0.625 0.625h-1.6072c-0.3452 0-0.625-0.2798-0.625-0.625v-2.3851z"/>
<path d="m19.143 14.023c0-0.3451 0.2798-0.625 0.625-0.625h1.6071c0.3452 0 0.625 0.2799 0.625 0.625v2.3852h-2.8571v-2.3852z"/>
<path d="m19.143 16.409h2.8571v3.0102h-2.8571v-3.0102z"/>
<path d="m19.143 19.419h2.8571v2.385c0 0.3452-0.2798 0.625-0.625 0.625h-1.6071c-0.3452 0-0.625-0.2798-0.625-0.625v-2.385z"/>
</svg>
